<?xml version="1.0" encoding="UTF-8"?>
<svg width="800" height="600" viewBox="0 0 800 600" fill="none" xmlns="http://www.w3.org/2000/svg">
  <!-- Background Elements -->
  <circle cx="700" cy="100" r="50" fill="#E8F5E9" opacity="0.5"/>
  <circle cx="100" cy="500" r="30" fill="#E8F5E9" opacity="0.3"/>
  
  <!-- Main Characters -->
  <g transform="translate(400, 300)">
    <!-- Person 1 -->
    <g transform="translate(-100, 0)">
      <circle cx="0" cy="-50" r="30" fill="#4CAF50"/>
      <path d="M-20,-20 Q0,10 20,-20" stroke="#2E7D32" stroke-width="3" fill="none"/>
      <rect x="-25" y="-20" width="50" height="70" rx="10" fill="#4CAF50"/>
    </g>
    
    <!-- Chat Bubble -->
    <path d="M-50,-100 L50,-100 Q80,-100 80,-70 L80,0 Q80,30 50,30 L-50,30 Q-80,30 -80,0 L-80,-70 Q-80,-100 -50,-100 Z" 
          fill="#81C784" stroke="#2E7D32" stroke-width="2"/>
    
    <!-- Person 2 -->
    <g transform="translate(100, 0)">
      <circle cx="0" cy="-50" r="30" fill="#4CAF50"/>
      <path d="M-20,-20 Q0,10 20,-20" stroke="#2E7D32" stroke-width="3" fill="none"/>
      <rect x="-25" y="-20" width="50" height="70" rx="10" fill="#4CAF50"/>
    </g>
  </g>
  
  <!-- Decorative Elements -->
  <path d="M100,100 Q400,0 700,100" stroke="#81C784" stroke-width="2" stroke-dasharray="5,5" fill="none"/>
  <path d="M100,500 Q400,600 700,500" stroke="#81C784" stroke-width="2" stroke-dasharray="5,5" fill="none"/>
</svg>
